<svg width="779" height="692" viewBox="0 0 779 692" fill="none" xmlns="http://www.w3.org/2000/svg">
<path fill-rule="evenodd" clip-rule="evenodd" d="M232.443 0L338.475 180.054L580.385 108.081L736.596 264.291L735.889 264.998L580.099 109.209L338.01 181.236L232.042 1.28972L0.45328 109.098L0.03125 108.192L232.443 0Z" fill="#D84727" fill-opacity="0.61"/>
<path fill-rule="evenodd" clip-rule="evenodd" d="M218.444 49.9929L332.461 248.023L570.37 155.058L738.601 328.297L737.884 328.993L570.115 156.232L332.024 249.267L218.041 51.297L0.45933 156.095L0.0253906 155.194L218.444 49.9929Z" fill="#D84727" fill-opacity="0.4"/>
<path fill-rule="evenodd" clip-rule="evenodd" d="M202.425 91.9719L330.443 308.002L556.362 204.039L738.609 400.305L737.876 400.985L556.122 205.25L330.042 309.287L202.06 93.3177L0.484908 205.082L0 204.208L202.425 91.9719Z" fill="#D84727" fill-opacity="0.2"/>
<path fill-rule="evenodd" clip-rule="evenodd" d="M545.416 409.958L673.401 625.932L763.961 564.232L764.524 565.058L673.084 627.358L545.069 411.332L365.5 519.074L364.985 518.216L545.416 409.958Z" fill="#D84727" fill-opacity="0.4"/>
<path fill-rule="evenodd" clip-rule="evenodd" d="M534.428 463.964L664.4 689.916L777.951 608.239L778.535 609.051L664.085 691.374L534.057 465.325L365.49 561.079L364.996 560.21L534.428 463.964Z" fill="#D84727" fill-opacity="0.61"/>
</svg>
